<?xml version="1.0" standalone="no"?><!DOCTYPE svg PUBLIC "-//W3C//DTD SVG 1.1//EN" "http://www.w3.org/Graphics/SVG/1.1/DTD/svg11.dtd"><svg t="1772872176409" class="icon" viewBox="0 0 1024 1024" version="1.1" xmlns="http://www.w3.org/2000/svg" p-id="5018" xmlns:xlink="http://www.w3.org/1999/xlink" width="200" height="200"><path d="M512 512m-509.84891949 0a509.84891949 509.84891949 0 1 0 1019.69783898 0 509.84891949 509.84891949 0 1 0-1019.69783898 0Z" fill="#FFAD53" p-id="5019"></path><path d="M615.15943117 314.96888535c-39.54728074 0-76.87671968 16.3661509-104.17912861 46.18381403-27.31090757-29.23133827-64.62335052-46.18381404-104.18762725-46.18381403-80.78556115 0-146.50508656 68.96556329-146.50508656 153.70245396 0 15.28697072 2.20934575 29.22284093 5.77828808 41.93507342h99.64997028c3.49246491 0 37.87327706-77.09765465 37.87327705-77.09765335 14.38623747-28.58552938 44.08493642-22.71376915 50.12664752 9.00732997l21.55811153 113.12697844 21.4986288-47.61988936c13.2900613-28.68749887 42.92927881-25.16104458 50.88292194 5.88875491l7.52027186 29.29931836 21.04826282-27.07297791 5.89725228-8.07260733h84.83886016c10.85978188 0 19.63768084 9.97604333 19.63768084 22.25490454 0 12.29585591-8.80339101 22.24640848-19.62918349 22.24640848h-65.69403205l-26.49514911 35.46848968c-17.00346116 23.32558865-44.66276523 16.91848637-52.10655965-12.13440498l-4.7840827-18.64347544-0.54383811-2.14986301-23.47004618 54.99570369c-13.70643788 29.58823212-43.74503728 24.37927549-49.88871654-7.86017101l-21.61759428-113.35640945-29.10387545 54.978709-5.65932261 11.21667573H285.32117049c5.44688628 9.4831893 11.1062089 18.01466126 16.17920534 25.7473707 51.2398158 77.70097549 179.93418137 173.55257243 185.50852918 177.05353468 7.23985415 5.25144337 15.60137653 8.18307546 23.94590421 8.18307546a38.62955279 38.62955279 0 0 0 23.96290021-8.18307546c5.56585047-4.10428439 133.69938193-99.93038798 185.50852917-177.04503732 17.27538151-26.29120884 41.21278707-61.92115075 41.21278707-112.20924918 0.02549204-84.69440263-65.7195254-153.65996722-146.4795945-153.65996722z" fill="#FFFFFF" p-id="5020"></path></svg>